<svg xmlns="http://www.w3.org/2000/svg" xmlns:xlink="http://www.w3.org/1999/xlink" width="200" zoomAndPan="magnify" viewBox="0 0 150 149.999998" height="200" preserveAspectRatio="xMidYMid meet" version="1.0"><defs><clipPath id="183ca9cbd3"><path d="M 7.5 0 L 142.5 0 L 142.5 147 L 7.5 147 Z M 7.5 0 " clip-rule="nonzero"/></clipPath></defs><g clip-path="url(#183ca9cbd3)"><path fill="#2196f3" d="M 141.644531 1.003906 C 141.035156 0.332031 140.277344 0 139.367188 0 L 10.632812 0 C 10.417969 0 10.203125 0.0195312 9.992188 0.0625 C 9.78125 0.105469 9.578125 0.171875 9.382812 0.257812 C 9.1875 0.34375 9 0.449219 8.824219 0.578125 C 8.652344 0.703125 8.492188 0.84375 8.347656 1.003906 C 8.203125 1.160156 8.078125 1.332031 7.96875 1.519531 C 7.859375 1.703125 7.773438 1.898438 7.703125 2.101562 C 7.636719 2.304688 7.59375 2.515625 7.570312 2.726562 C 7.546875 2.941406 7.542969 3.15625 7.566406 3.367188 L 19.828125 125.867188 C 19.886719 126.46875 20.105469 127.003906 20.480469 127.476562 C 20.855469 127.949219 21.332031 128.28125 21.90625 128.472656 L 77.078125 146.847656 C 77.398438 146.949219 77.726562 147 78.066406 147 C 78.4375 147 78.796875 146.933594 79.144531 146.804688 L 128.1875 128.429688 C 128.734375 128.226562 129.1875 127.894531 129.546875 127.433594 C 129.90625 126.972656 130.113281 126.449219 130.171875 125.867188 L 142.433594 3.367188 C 142.523438 2.464844 142.257812 1.675781 141.644531 1.003906 Z M 141.644531 1.003906 " fill-opacity="1" fill-rule="nonzero"/></g><path fill="#fafafa" d="M 78.066406 116.375 C 77.734375 116.375 77.410156 116.324219 77.097656 116.222656 L 49.511719 107.035156 C 48.988281 106.859375 48.546875 106.570312 48.183594 106.160156 C 47.820312 105.75 47.582031 105.273438 47.476562 104.738281 L 44.410156 89.425781 C 44.328125 89.027344 44.324219 88.628906 44.402344 88.230469 C 44.480469 87.832031 44.632812 87.460938 44.855469 87.121094 C 45.078125 86.785156 45.359375 86.5 45.695312 86.273438 C 46.035156 86.046875 46.402344 85.890625 46.800781 85.808594 C 47.199219 85.730469 47.597656 85.726562 47.996094 85.804688 C 48.394531 85.882812 48.765625 86.03125 49.105469 86.257812 C 49.441406 86.480469 49.726562 86.761719 49.953125 87.097656 C 50.183594 87.433594 50.335938 87.800781 50.417969 88.199219 L 53.132812 101.765625 L 78.003906 110.066406 L 99.863281 101.878906 L 111.207031 36.75 L 41.28125 36.75 C 40.875 36.75 40.484375 36.671875 40.109375 36.515625 C 39.734375 36.363281 39.402344 36.140625 39.117188 35.851562 C 38.828125 35.566406 38.605469 35.234375 38.449219 34.859375 C 38.296875 34.484375 38.21875 34.09375 38.21875 33.6875 C 38.21875 33.28125 38.296875 32.890625 38.449219 32.515625 C 38.605469 32.140625 38.828125 31.808594 39.117188 31.523438 C 39.402344 31.234375 39.734375 31.011719 40.109375 30.859375 C 40.484375 30.703125 40.875 30.625 41.28125 30.625 L 114.847656 30.625 C 115.070312 30.625 115.292969 30.648438 115.511719 30.695312 C 115.730469 30.746094 115.941406 30.816406 116.140625 30.910156 C 116.34375 31.003906 116.535156 31.121094 116.714844 31.253906 C 116.890625 31.390625 117.050781 31.542969 117.195312 31.714844 C 117.339844 31.886719 117.464844 32.070312 117.566406 32.269531 C 117.671875 32.46875 117.75 32.675781 117.808594 32.890625 C 117.867188 33.105469 117.902344 33.324219 117.914062 33.550781 C 117.921875 33.773438 117.90625 33.992188 117.871094 34.214844 L 105.609375 104.652344 C 105.515625 105.1875 105.296875 105.660156 104.949219 106.078125 C 104.601562 106.496094 104.175781 106.800781 103.664062 106.992188 L 79.144531 116.179688 C 78.796875 116.308594 78.4375 116.375 78.066406 116.375 Z M 78.066406 116.375 " fill-opacity="1" fill-rule="nonzero"/><path fill="#fafafa" d="M 108.71875 67.375 L 44.347656 67.375 C 43.941406 67.375 43.550781 67.296875 43.175781 67.140625 C 42.800781 66.988281 42.46875 66.765625 42.179688 66.476562 C 41.894531 66.191406 41.671875 65.859375 41.515625 65.484375 C 41.359375 65.109375 41.28125 64.71875 41.28125 64.3125 C 41.28125 63.90625 41.359375 63.515625 41.515625 63.140625 C 41.671875 62.765625 41.894531 62.433594 42.179688 62.148438 C 42.46875 61.859375 42.800781 61.636719 43.175781 61.484375 C 43.550781 61.328125 43.941406 61.25 44.347656 61.25 L 108.71875 61.25 C 109.125 61.25 109.515625 61.328125 109.890625 61.484375 C 110.265625 61.636719 110.597656 61.859375 110.882812 62.148438 C 111.171875 62.433594 111.394531 62.765625 111.550781 63.140625 C 111.703125 63.515625 111.78125 63.90625 111.78125 64.3125 C 111.78125 64.71875 111.703125 65.109375 111.550781 65.484375 C 111.394531 65.859375 111.171875 66.191406 110.882812 66.476562 C 110.597656 66.765625 110.265625 66.988281 109.890625 67.140625 C 109.515625 67.296875 109.125 67.375 108.71875 67.375 Z M 108.71875 67.375 " fill-opacity="1" fill-rule="nonzero"/></svg>