<svg xmlns="http://www.w3.org/2000/svg" xmlns:xlink="http://www.w3.org/1999/xlink" width="200" zoomAndPan="magnify" viewBox="0 0 150 149.999998" height="200" preserveAspectRatio="xMidYMid meet" version="1.0"><defs><clipPath id="3411f1c9bf"><path d="M 9.273438 0 L 140.523438 0 L 140.523438 150 L 9.273438 150 Z M 9.273438 0 " clip-rule="nonzero"/></clipPath></defs><g clip-path="url(#3411f1c9bf)"><path fill="#e44d26" d="M 21.1875 134.675781 L 9.234375 0.421875 L 140.558594 0.421875 L 128.597656 134.65625 L 74.8125 149.582031 Z M 21.1875 134.675781 " fill-opacity="1" fill-rule="nonzero"/></g><path fill="#f16529" d="M 118.355469 126.105469 L 128.578125 11.402344 L 74.898438 11.402344 L 74.898438 138.175781 Z M 118.355469 126.105469 " fill-opacity="1" fill-rule="nonzero"/><path fill="#ebebeb" d="M 74.84375 27.863281 L 33.671875 27.863281 L 38.105469 77.65625 L 74.898438 77.65625 L 74.898438 61.191406 L 53.144531 61.191406 L 51.640625 44.332031 L 74.898438 44.332031 L 74.898438 27.863281 Z M 74.898438 103.898438 L 74.828125 103.917969 L 56.519531 98.96875 L 55.355469 85.835938 L 38.839844 85.835938 L 41.144531 111.6875 L 74.824219 121.011719 L 74.898438 120.988281 Z M 74.898438 103.898438 " fill-opacity="1" fill-rule="nonzero"/><path fill="#ffffff" d="M 74.84375 77.65625 L 95.085938 77.65625 L 93.226562 99.003906 L 74.886719 103.960938 L 74.886719 121.089844 L 108.59375 111.734375 L 113.109375 61.183594 L 74.898438 61.183594 Z M 115.632812 32.285156 L 116.023438 27.863281 L 74.832031 27.863281 L 74.832031 44.328125 L 114.542969 44.328125 L 114.867188 40.628906 Z M 115.632812 32.285156 " fill-opacity="1" fill-rule="nonzero"/></svg>