<svg xmlns="http://www.w3.org/2000/svg" xmlns:xlink="http://www.w3.org/1999/xlink" width="200" zoomAndPan="magnify" viewBox="0 0 150 149.999998" height="200" preserveAspectRatio="xMidYMid meet" version="1.0"><defs><clipPath id="f8bc8d8a9f"><path d="M 19.875 0 L 130 0 L 130 150 L 19.875 150 Z M 19.875 0 " clip-rule="nonzero"/></clipPath></defs><g clip-path="url(#f8bc8d8a9f)"><path fill="#ffffff" d="M 74.984375 0 C 110.554688 0 129.972656 9.925781 129.972656 15 C 129.972656 20.074219 110.554688 30 74.984375 30 C 39.414062 30 19.996094 20.074219 19.996094 15 C 19.996094 9.925781 39.414062 0 74.984375 0 Z M 74.984375 150 C 39.414062 150 19.996094 140.074219 19.996094 135 L 19.996094 118.910156 C 32.132812 126.222656 53.605469 129.988281 74.984375 129.988281 C 96.363281 129.988281 117.867188 126.191406 129.972656 118.910156 L 129.972656 135 C 130.003906 140.074219 110.585938 150 74.984375 150 Z M 74.984375 120 C 39.414062 120 19.996094 110.074219 19.996094 105 L 19.996094 88.910156 C 32.132812 96.222656 53.605469 99.988281 74.984375 99.988281 C 96.363281 99.988281 117.867188 96.191406 129.972656 88.910156 L 129.972656 105 C 130.003906 110.074219 110.585938 120 74.984375 120 Z M 74.984375 90 C 39.414062 90 19.996094 80.074219 19.996094 75 L 19.996094 58.910156 C 32.132812 66.222656 53.605469 69.988281 74.984375 69.988281 C 96.363281 69.988281 117.867188 66.191406 129.972656 58.910156 L 129.972656 75 C 130.003906 80.074219 110.585938 90 74.984375 90 Z M 74.984375 60 C 39.414062 60 19.996094 50.074219 19.996094 45 L 19.996094 28.910156 C 32.132812 36.222656 53.605469 39.988281 74.984375 39.988281 C 96.363281 39.988281 117.867188 36.191406 129.972656 28.910156 L 129.972656 45 C 130.003906 50.074219 110.585938 60 74.984375 60 Z M 74.984375 60 " fill-opacity="1" fill-rule="nonzero"/></g></svg>