<svg xmlns="http://www.w3.org/2000/svg" xmlns:xlink="http://www.w3.org/1999/xlink" width="200" zoomAndPan="magnify" viewBox="0 0 150 149.999998" height="200" preserveAspectRatio="xMidYMid meet" version="1.0"><defs><clipPath id="8718fbf78e"><path d="M 8.453125 0 L 141.203125 0 L 141.203125 150 L 8.453125 150 Z M 8.453125 0 " clip-rule="nonzero"/></clipPath></defs><g clip-path="url(#8718fbf78e)"><path fill="#539e43" d="M 74.828125 149.980469 C 72.773438 149.980469 70.855469 149.429688 69.074219 148.472656 L 50.851562 137.617188 C 48.113281 136.109375 49.484375 135.558594 50.304688 135.285156 C 54.003906 134.046875 54.6875 133.773438 58.527344 131.574219 C 58.9375 131.300781 59.484375 131.4375 59.894531 131.714844 L 73.867188 140.089844 C 74.414062 140.363281 75.105469 140.363281 75.515625 140.089844 L 130.179688 108.363281 C 130.726562 108.089844 131 107.539062 131 106.851562 L 131 43.527344 C 131 42.839844 130.726562 42.292969 130.179688 42.019531 L 75.515625 10.425781 C 74.96875 10.148438 74.28125 10.148438 73.867188 10.425781 L 19.207031 42.019531 C 18.65625 42.292969 18.382812 42.980469 18.382812 43.527344 L 18.382812 106.851562 C 18.382812 107.398438 18.65625 108.089844 19.203125 108.363281 L 34.136719 117.015625 C 42.222656 121.136719 47.292969 116.332031 47.292969 111.519531 L 47.292969 49.023438 C 47.292969 48.199219 47.976562 47.375 48.933594 47.375 L 55.921875 47.375 C 56.746094 47.375 57.566406 48.0625 57.566406 49.023438 L 57.566406 111.519531 C 57.566406 122.375 51.675781 128.691406 41.398438 128.691406 C 38.25 128.691406 35.78125 128.691406 28.796875 125.257812 L 14.410156 117.015625 C 10.847656 114.957031 8.65625 111.113281 8.65625 106.992188 L 8.65625 43.667969 C 8.65625 39.546875 10.847656 35.699219 14.410156 33.640625 L 69.074219 1.910156 C 72.496094 -0.0117188 77.160156 -0.0117188 80.582031 1.910156 L 135.25 33.640625 C 138.8125 35.699219 141.003906 39.546875 141.003906 43.667969 L 141.003906 106.988281 C 141.003906 111.109375 138.8125 114.957031 135.25 117.011719 L 80.582031 148.746094 C 78.804688 149.570312 76.746094 149.976562 74.828125 149.976562 Z M 91.683594 106.441406 C 67.707031 106.441406 62.773438 95.449219 62.773438 86.109375 C 62.773438 85.285156 63.457031 84.460938 64.417969 84.460938 L 71.542969 84.460938 C 72.363281 84.460938 73.046875 85.007812 73.046875 85.832031 C 74.140625 93.113281 77.296875 96.6875 91.816406 96.6875 C 103.324219 96.6875 108.257812 94.074219 108.257812 87.894531 C 108.257812 84.324219 106.886719 81.710938 88.945312 79.929688 C 74.007812 78.414062 64.691406 75.121094 64.691406 63.171875 C 64.691406 52.042969 74.007812 45.453125 89.625 45.453125 C 107.164062 45.453125 115.796875 51.496094 116.890625 64.679688 C 116.890625 65.09375 116.753906 65.503906 116.476562 65.917969 C 116.203125 66.195312 115.796875 66.46875 115.382812 66.46875 L 108.257812 66.46875 C 107.574219 66.46875 106.886719 65.917969 106.753906 65.230469 C 105.109375 57.679688 100.859375 55.207031 89.625 55.207031 C 77.023438 55.207031 75.515625 59.601562 75.515625 62.898438 C 75.515625 66.878906 77.296875 68.117188 94.285156 70.3125 C 111.136719 72.511719 119.082031 75.667969 119.082031 87.480469 C 118.945312 99.566406 109.082031 106.441406 91.683594 106.441406 Z M 91.683594 106.441406 " fill-opacity="1" fill-rule="nonzero"/></g></svg>