<svg xmlns="http://www.w3.org/2000/svg" xmlns:xlink="http://www.w3.org/1999/xlink" width="200" zoomAndPan="magnify" viewBox="0 0 150 149.999998" height="200" preserveAspectRatio="xMidYMid meet" version="1.0"><defs><clipPath id="b5cec1a2ec"><path d="M 2 50 L 86 50 L 86 103.125 L 2 103.125 Z M 2 50 " clip-rule="nonzero"/></clipPath><clipPath id="bef2444cfb"><path d="M 43 46.875 L 48 46.875 L 48 50 L 43 50 Z M 43 46.875 " clip-rule="nonzero"/></clipPath><clipPath id="8aa04b0cce"><path d="M 48 74 L 73 74 L 73 103.125 L 48 103.125 Z M 48 74 " clip-rule="nonzero"/></clipPath><clipPath id="d5095e292b"><path d="M 110 74 L 129 74 L 129 103.125 L 110 103.125 Z M 110 74 " clip-rule="nonzero"/></clipPath><clipPath id="4707578942"><path d="M 99 74 L 107 74 L 107 103.125 L 99 103.125 Z M 99 74 " clip-rule="nonzero"/></clipPath><clipPath id="98a30246ba"><path d="M 74 74 L 96 74 L 96 103.125 L 74 103.125 Z M 74 74 " clip-rule="nonzero"/></clipPath><clipPath id="d15b41f159"><path d="M 130 74 L 150 74 L 150 103.125 L 130 103.125 Z M 130 74 " clip-rule="nonzero"/></clipPath></defs><path fill="#c70b00" d="M 35.425781 80.332031 C 34.929688 81.824219 34.59375 83.324219 34.289062 84.773438 L 37.355469 87.355469 C 37.507812 85.78125 37.773438 84.207031 38.148438 82.632812 Z M 35.425781 80.332031 " fill-opacity="1" fill-rule="nonzero"/><path fill="#c70b00" d="M 33.71875 95.042969 C 33.792969 97.1875 33.980469 98.925781 34.175781 100.136719 L 38.71875 101.875 C 38.375 100.300781 38.039062 98.519531 37.8125 96.617188 Z M 33.71875 95.042969 " fill-opacity="1" fill-rule="nonzero"/><g clip-path="url(#b5cec1a2ec)"><path fill="#c70b00" d="M 2.929688 101.144531 C 2.71875 102.386719 2.648438 103.117188 2.648438 103.117188 L 2.65625 103.125 L 32.585938 103.125 C 32.585938 103.125 26.867188 75.289062 45.8125 64.007812 C 49.945312 61.863281 63.09375 53.863281 84.605469 70.832031 C 85.289062 70.226562 85.929688 69.738281 85.929688 69.738281 C 85.929688 69.738281 66.226562 48.769531 44.289062 51.105469 C 33.226562 52.15625 19.664062 62.867188 11.707031 77.007812 C 5.65625 87.75 3.582031 97.199219 2.929688 101.144531 Z M 2.929688 101.144531 " fill-opacity="1" fill-rule="nonzero"/></g><path fill="#c70b00" d="M 17.695312 65.582031 L 15.007812 63.074219 C 14.019531 64.085938 13.074219 65.09375 12.207031 66.105469 L 15.125 68.769531 C 15.917969 67.675781 16.792969 66.585938 17.699219 65.574219 Z M 17.695312 65.582031 " fill-opacity="1" fill-rule="nonzero"/><path fill="#c70b00" d="M 43.84375 71.8125 L 42.136719 69.0625 C 41.269531 69.914062 40.46875 70.835938 39.789062 71.769531 L 41.605469 74.675781 C 42.25 73.664062 43.007812 72.730469 43.84375 71.8125 Z M 43.84375 71.8125 " fill-opacity="1" fill-rule="nonzero"/><g clip-path="url(#bef2444cfb)"><path fill="#c70b00" d="M 47.78125 49.335938 L 47.023438 46.875 C 45.851562 46.875 44.636719 46.957031 43.386719 47.117188 L 44.105469 49.5 C 45.207031 49.382812 46.304688 49.335938 47.398438 49.335938 Z M 47.78125 49.335938 " fill-opacity="1" fill-rule="nonzero"/></g><path fill="#c70b00" d="M 30.304688 50.792969 C 29.355469 51.320312 28.375 51.886719 27.351562 52.523438 L 29.09375 55.355469 C 30.082031 54.710938 31.023438 54.105469 32.011719 53.582031 Z M 30.304688 50.792969 " fill-opacity="1" fill-rule="nonzero"/><path fill="#c70b00" d="M 6.25 83.644531 L 1.894531 81.945312 C 1.175781 83.679688 0.382812 85.707031 0 86.792969 L 4.355469 88.488281 C 4.851562 87.113281 5.644531 85.136719 6.25 83.644531 Z M 6.25 83.644531 " fill-opacity="1" fill-rule="nonzero"/><g clip-path="url(#8aa04b0cce)"><path fill="#c70b00" d="M 48.3125 103.125 L 55.585938 103.125 L 55.585938 96.175781 L 61.875 103.125 L 72.632812 103.125 L 64.179688 94.039062 L 64.179688 94.03125 C 64.179688 94.03125 70.8125 93.429688 70.8125 84.292969 C 70.8125 75.15625 62.78125 74.3125 62.78125 74.3125 L 48.3125 74.3125 Z M 55.582031 81.539062 L 61.414062 81.539062 C 61.414062 81.539062 63.042969 82.179688 63.042969 84.8125 C 63.042969 87.4375 61.375 88.125 61.375 88.125 L 55.582031 88.125 Z M 55.582031 81.539062 " fill-opacity="1" fill-rule="nonzero"/></g><g clip-path="url(#d5095e292b)"><path fill="#c70b00" d="M 110.023438 74.511719 L 110.023438 103.117188 L 128.023438 103.117188 L 128.023438 95.726562 L 117.679688 95.726562 L 117.679688 74.511719 Z M 110.023438 74.511719 " fill-opacity="1" fill-rule="nonzero"/></g><g clip-path="url(#4707578942)"><path fill="#c70b00" d="M 99.195312 74.511719 L 106.882812 74.511719 L 106.882812 103.117188 L 99.195312 103.117188 Z M 99.195312 74.511719 " fill-opacity="1" fill-rule="nonzero"/></g><path fill="#c70b00" d="M 65.167969 50.667969 C 64.824219 50.46875 63.882812 49.980469 61.492188 49.257812 L 61.335938 51.925781 C 62.585938 52.367188 63.800781 52.855469 65.011719 53.375 L 65.011719 53.382812 Z M 65.167969 50.667969 " fill-opacity="1" fill-rule="nonzero"/><path fill="#c70b00" d="M 65.167969 62.46875 C 63.882812 62.1875 62.632812 62.023438 61.417969 61.945312 L 61.417969 61.949219 L 61.269531 64.492188 C 62.519531 64.53125 63.769531 64.695312 65.019531 64.976562 Z M 65.167969 62.46875 " fill-opacity="1" fill-rule="nonzero"/><g clip-path="url(#98a30246ba)"><path fill="#c70b00" d="M 88.769531 74.511719 L 81.382812 74.511719 C 76.117188 74.511719 74.335938 79.605469 74.335938 82.03125 L 74.335938 103.125 L 81.726562 103.125 L 81.726562 98.070312 L 88.65625 98.070312 L 88.65625 103.125 L 95.8125 103.125 L 95.8125 82.03125 C 95.820312 75.886719 90.59375 74.511719 88.769531 74.511719 Z M 81.6875 89.90625 L 81.6875 82.917969 C 81.6875 82.917969 81.6875 81.335938 84 81.335938 L 86.539062 81.335938 C 88.582031 81.335938 88.617188 82.917969 88.617188 82.917969 L 88.617188 89.90625 Z M 81.6875 89.90625 " fill-opacity="1" fill-rule="nonzero"/></g><g clip-path="url(#d15b41f159)"><path fill="#c70b00" d="M 149.019531 81.867188 L 149.019531 74.511719 L 137.273438 74.511719 C 134.242188 74.511719 130.195312 77.175781 130.195312 82.148438 L 130.195312 84.695312 C 130.195312 89.667969 134.207031 92.210938 137.273438 92.210938 C 139.25 92.21875 140.175781 92.226562 140.570312 92.226562 C 139.976562 92.21875 138.855469 92.210938 143.105469 92.210938 L 143.105469 95.769531 L 130.570312 95.804688 L 130.570312 103.125 L 142.957031 103.125 C 145.492188 103.125 149.851562 101.144531 150 95.605469 L 150 92.773438 C 150 88.050781 146.363281 85.257812 142.957031 85.257812 L 136.78125 85.257812 L 136.78125 81.863281 L 149.019531 81.863281 Z M 149.019531 81.867188 " fill-opacity="1" fill-rule="nonzero"/></g><path fill="#c70b00" d="M 53.382812 65.585938 L 52.550781 62.925781 C 51.261719 63.324219 50.164062 63.773438 49.21875 64.21875 L 50.085938 67.007812 C 51.1875 66.4375 52.289062 65.949219 53.382812 65.585938 Z M 53.382812 65.585938 " fill-opacity="1" fill-rule="nonzero"/></svg>