<svg xmlns="http://www.w3.org/2000/svg" xmlns:xlink="http://www.w3.org/1999/xlink" width="200" zoomAndPan="magnify" viewBox="0 0 150 149.999998" height="200" preserveAspectRatio="xMidYMid meet" version="1.0"><path fill="#53c1de" d="M 88.394531 74.972656 C 88.394531 67.792969 82.398438 61.96875 75 61.96875 C 67.601562 61.96875 61.605469 67.792969 61.605469 74.972656 C 61.605469 82.15625 67.601562 87.976562 75 87.976562 C 82.398438 87.976562 88.394531 82.15625 88.394531 74.972656 Z M 88.394531 74.972656 " fill-opacity="1" fill-rule="nonzero"/><path fill="#53c1de" d="M 118.503906 50.828125 C 121.332031 39.671875 124.886719 18.976562 112.351562 11.960938 C 99.875 4.976562 83.640625 18.359375 75.070312 26.394531 C 66.523438 18.441406 49.832031 5.113281 37.308594 12.148438 C 24.835938 19.160156 28.683594 39.511719 31.574219 50.738281 C 19.941406 53.949219 0 60.855469 0 74.972656 C 0 89.050781 19.921875 96.566406 31.484375 99.769531 C 28.582031 111.0625 24.929688 131.125 37.417969 138.117188 C 49.988281 145.152344 66.625 132.140625 75.277344 124.019531 C 83.90625 132.101562 99.984375 145.199219 112.460938 138.183594 C 124.976562 131.148438 121.71875 110.734375 118.828125 99.4375 C 130.035156 96.226562 150 88.875 150 74.972656 C 150 60.992188 129.953125 54.027344 118.503906 50.828125 Z M 117.082031 93.453125 C 115.183594 87.617188 112.621094 81.414062 109.484375 75.003906 C 112.476562 68.746094 114.941406 62.621094 116.785156 56.824219 C 125.179688 59.1875 143.59375 64.585938 143.59375 74.972656 C 143.59375 85.457031 125.921875 90.910156 117.082031 93.453125 Z M 109.25 132.800781 C 99.941406 138.03125 86.109375 125.507812 79.738281 119.558594 C 83.964844 115.070312 88.191406 109.851562 92.3125 104.058594 C 99.566406 103.433594 106.414062 102.410156 112.628906 101.015625 C 114.664062 109.007812 118.601562 127.546875 109.25 132.800781 Z M 40.617188 132.726562 C 31.308594 127.515625 35.5625 109.613281 37.699219 101.296875 C 43.839844 102.613281 50.644531 103.5625 57.910156 104.136719 C 62.0625 109.804688 66.40625 115.019531 70.789062 119.582031 C 65.375 124.664062 49.972656 137.960938 40.617188 132.726562 Z M 6.40625 74.972656 C 6.40625 64.449219 24.710938 59.089844 33.296875 56.730469 C 35.171875 62.660156 37.632812 68.855469 40.605469 75.125 C 37.597656 81.484375 35.097656 87.78125 33.203125 93.777344 C 25.019531 91.503906 6.40625 85.503906 6.40625 74.972656 Z M 40.519531 17.535156 C 49.867188 12.28125 64.375 25.074219 70.578125 30.835938 C 66.222656 35.378906 61.914062 40.550781 57.800781 46.1875 C 50.746094 46.824219 43.992188 47.84375 37.785156 49.207031 C 35.457031 40.152344 31.179688 22.78125 40.519531 17.535156 Z M 96.898438 52.949219 C 101.683594 53.535156 106.269531 54.316406 110.574219 55.269531 C 109.28125 59.292969 107.671875 63.5 105.773438 67.808594 C 103.023438 62.742188 100.070312 57.777344 96.898438 52.949219 Z M 75.070312 35.28125 C 78.027344 38.390625 80.988281 41.859375 83.898438 45.625 C 77.992188 45.355469 72.078125 45.355469 66.171875 45.621094 C 69.085938 41.890625 72.070312 38.425781 75.070312 35.28125 Z M 44.28125 67.804688 C 42.417969 63.507812 40.820312 59.285156 39.515625 55.203125 C 43.796875 54.273438 48.359375 53.515625 53.113281 52.9375 C 49.933594 57.757812 46.984375 62.71875 44.28125 67.804688 Z M 53.25 97.453125 C 48.339844 96.921875 43.707031 96.199219 39.429688 95.292969 C 40.753906 91.144531 42.382812 86.828125 44.289062 82.4375 C 47.03125 87.578125 50.023438 92.589844 53.25 97.453125 Z M 75.25 115.105469 C 72.210938 111.921875 69.183594 108.402344 66.222656 104.617188 C 72.164062 104.84375 78.117188 104.84375 84.054688 104.589844 C 81.132812 108.441406 78.183594 111.964844 75.25 115.105469 Z M 105.832031 82.214844 C 107.839844 86.652344 109.527344 90.945312 110.871094 95.023438 C 106.523438 95.988281 101.824219 96.765625 96.878906 97.339844 C 100.074219 92.421875 103.074219 87.378906 105.832031 82.214844 Z M 88.738281 98.09375 C 79.652344 98.726562 70.507812 98.71875 61.417969 98.148438 C 56.253906 90.824219 51.65625 83.121094 47.6875 75.121094 C 51.636719 67.144531 56.203125 59.453125 61.34375 52.140625 C 70.4375 51.476562 79.589844 51.472656 88.683594 52.144531 C 93.78125 59.457031 98.335938 67.125 102.378906 75.035156 C 98.386719 83.011719 93.796875 90.714844 88.738281 98.09375 Z M 109.152344 17.347656 C 118.503906 22.585938 114.339844 41.183594 112.296875 49.273438 C 106.074219 47.878906 99.316406 46.839844 92.242188 46.195312 C 88.121094 40.496094 83.847656 35.316406 79.5625 30.832031 C 85.847656 24.949219 99.890625 12.164062 109.152344 17.347656 Z M 109.152344 17.347656 " fill-opacity="1" fill-rule="evenodd"/></svg>