<svg xmlns="http://www.w3.org/2000/svg" xmlns:xlink="http://www.w3.org/1999/xlink" width="200" zoomAndPan="magnify" viewBox="0 0 150 149.999998" height="200" preserveAspectRatio="xMidYMid meet" version="1.0"><defs><clipPath id="85b9ff2678"><path d="M 0 84 L 63 84 L 63 114.339844 L 0 114.339844 Z M 0 84 " clip-rule="nonzero"/></clipPath></defs><g clip-path="url(#85b9ff2678)"><path fill="#00618a" d="M 0.554688 107.535156 L 5.457031 107.535156 L 5.457031 88.1875 L 13.050781 105.0625 C 13.949219 107.097656 15.175781 107.828125 17.582031 107.828125 C 19.984375 107.828125 21.164062 107.105469 22.0625 105.0625 L 29.65625 88.1875 L 29.65625 107.542969 L 34.5625 107.542969 L 34.5625 88.21875 C 34.5625 86.335938 33.804688 85.421875 32.25 84.953125 C 28.523438 83.789062 26.023438 84.796875 24.890625 87.308594 L 17.441406 103.960938 L 10.222656 87.300781 C 9.136719 84.789062 6.589844 83.78125 2.867188 84.945312 C 1.308594 85.417969 0.554688 86.328125 0.554688 88.210938 Z M 38.640625 91.78125 L 43.542969 91.78125 L 43.542969 102.445312 C 43.496094 103.027344 43.730469 104.386719 46.414062 104.429688 C 47.785156 104.449219 56.996094 104.429688 57.082031 104.429688 L 57.082031 91.730469 L 61.996094 91.730469 C 62.019531 91.730469 61.992188 109.042969 61.992188 109.117188 C 62.019531 113.386719 56.691406 114.316406 54.234375 114.386719 L 38.746094 114.386719 L 38.746094 111.089844 L 54.261719 111.089844 C 57.417969 110.753906 57.046875 109.1875 57.046875 108.660156 L 57.046875 107.375 L 46.621094 107.375 C 41.769531 107.332031 38.683594 105.214844 38.644531 102.78125 C 38.640625 102.5625 38.75 91.886719 38.640625 91.78125 Z M 38.640625 91.78125 " fill-opacity="1" fill-rule="nonzero"/></g><path fill="#e48e00" d="M 65.777344 107.535156 L 79.882812 107.535156 C 81.53125 107.535156 83.136719 107.191406 84.410156 106.59375 C 86.535156 105.621094 87.570312 104.300781 87.570312 102.570312 L 87.570312 98.992188 C 87.570312 97.574219 86.390625 96.257812 84.082031 95.378906 C 82.855469 94.90625 81.34375 94.652344 79.882812 94.652344 L 73.941406 94.652344 C 71.960938 94.652344 71.015625 94.058594 70.78125 92.738281 C 70.734375 92.582031 70.734375 92.445312 70.734375 92.296875 L 70.734375 90.066406 C 70.734375 89.941406 70.734375 89.816406 70.78125 89.65625 C 71.015625 88.652344 71.535156 88.371094 73.28125 88.207031 C 73.421875 88.207031 73.609375 88.171875 73.753906 88.171875 L 87.761719 88.171875 L 87.761719 84.90625 L 73.988281 84.90625 C 72.007812 84.90625 70.96875 85.03125 70.027344 85.316406 C 67.097656 86.226562 65.824219 87.679688 65.824219 90.191406 L 65.824219 93.050781 C 65.824219 95.253906 68.324219 97.136719 72.519531 97.578125 C 72.992188 97.609375 73.464844 97.640625 73.9375 97.640625 L 79.03125 97.640625 C 79.21875 97.640625 79.40625 97.640625 79.550781 97.671875 C 81.105469 97.796875 81.765625 98.078125 82.238281 98.644531 C 82.527344 98.933594 82.617188 99.210938 82.617188 99.515625 L 82.617188 102.375 C 82.617188 102.722656 82.378906 103.160156 81.90625 103.539062 C 81.484375 103.914062 80.777344 104.167969 79.832031 104.230469 C 79.644531 104.230469 79.503906 104.261719 79.3125 104.261719 L 65.777344 104.261719 Z M 118.171875 101.851562 C 118.171875 105.210938 120.667969 107.097656 125.714844 107.472656 C 126.1875 107.511719 126.660156 107.53125 127.132812 107.535156 L 139.914062 107.535156 L 139.914062 104.269531 L 127.035156 104.269531 C 124.160156 104.269531 123.074219 103.546875 123.074219 101.816406 L 123.074219 84.914062 L 118.167969 84.914062 L 118.167969 101.847656 Z M 90.699219 102.019531 L 90.699219 90.371094 C 90.699219 87.410156 92.777344 85.617188 96.890625 85.050781 C 97.332031 84.988281 97.773438 84.957031 98.214844 84.953125 L 107.527344 84.953125 C 107.984375 84.957031 108.441406 84.988281 108.898438 85.050781 C 113.007812 85.617188 115.089844 87.410156 115.089844 90.371094 L 115.089844 102.019531 C 115.089844 104.421875 114.207031 105.707031 112.167969 106.542969 L 117 110.902344 L 111.304688 110.902344 L 107.398438 107.375 L 103.460938 107.625 L 98.214844 107.625 C 97.316406 107.625 96.371094 107.5 95.332031 107.214844 C 92.207031 106.367188 90.699219 104.726562 90.699219 102.019531 Z M 95.996094 101.730469 C 95.996094 101.886719 96.042969 102.042969 96.089844 102.234375 C 96.378906 103.585938 97.648438 104.34375 99.578125 104.34375 L 104.035156 104.34375 L 99.941406 100.652344 L 105.636719 100.652344 L 109.199219 103.871094 C 109.859375 103.519531 110.289062 102.984375 110.4375 102.296875 C 110.484375 102.140625 110.484375 101.980469 110.484375 101.824219 L 110.484375 90.65625 C 110.484375 90.527344 110.484375 90.363281 110.4375 90.214844 C 110.144531 88.953125 108.875 88.230469 106.984375 88.230469 L 99.59375 88.230469 C 97.410156 88.230469 96 89.175781 96 90.65625 L 96 101.738281 Z M 95.996094 101.730469 " fill-opacity="1" fill-rule="nonzero"/><path fill="#00618a" d="M 144.226562 79.492188 C 141.210938 79.410156 138.90625 79.691406 136.9375 80.519531 C 136.378906 80.757812 135.488281 80.761719 135.394531 81.460938 C 135.703125 81.785156 135.75 82.265625 135.996094 82.660156 C 136.464844 83.421875 137.261719 84.441406 137.96875 84.972656 C 138.742188 85.558594 139.539062 86.183594 140.367188 86.6875 C 141.84375 87.589844 143.492188 88.101562 144.914062 89.003906 C 145.75 89.53125 146.582031 90.199219 147.398438 90.800781 C 147.800781 91.097656 148.074219 91.558594 148.597656 91.742188 L 148.597656 91.65625 C 148.324219 91.304688 148.253906 90.824219 148 90.457031 L 146.882812 89.34375 C 145.792969 87.890625 144.410156 86.628906 142.941406 85.574219 C 141.769531 84.734375 139.140625 83.597656 138.652344 82.234375 L 138.566406 82.148438 C 139.398438 82.050781 140.371094 81.753906 141.140625 81.546875 C 142.429688 81.203125 143.582031 81.292969 144.914062 80.949219 L 146.714844 80.433594 L 146.714844 80.089844 C 146.042969 79.402344 145.5625 78.488281 144.828125 77.863281 C 142.910156 76.230469 140.8125 74.597656 138.65625 73.234375 C 137.460938 72.480469 135.980469 71.992188 134.710938 71.351562 C 134.285156 71.136719 133.535156 71.023438 133.253906 70.664062 C 132.589844 69.816406 132.226562 68.738281 131.710938 67.757812 C 130.636719 65.6875 129.578125 63.425781 128.625 61.246094 C 127.972656 59.761719 127.546875 58.296875 126.738281 56.964844 C 122.84375 50.566406 118.65625 46.707031 112.164062 42.914062 C 110.78125 42.105469 109.121094 41.789062 107.363281 41.371094 L 104.53125 41.199219 C 103.957031 40.960938 103.355469 40.253906 102.816406 39.914062 C 100.664062 38.554688 95.148438 35.605469 93.558594 39.476562 C 92.550781 41.929688 95.058594 44.320312 95.957031 45.5625 C 96.585938 46.433594 97.394531 47.410156 97.84375 48.390625 C 98.140625 49.03125 98.191406 49.679688 98.445312 50.359375 C 99.066406 52.03125 99.609375 53.863281 100.414062 55.414062 C 100.824219 56.199219 101.273438 57.027344 101.789062 57.726562 C 102.105469 58.160156 102.644531 58.347656 102.730469 59.015625 C 102.203125 59.753906 102.171875 60.902344 101.871094 61.839844 C 100.53125 66.0625 101.039062 71.3125 102.988281 74.4375 C 103.585938 75.394531 104.992188 77.453125 106.929688 76.664062 C 108.625 75.972656 108.238281 73.835938 108.730469 71.953125 C 108.839844 71.523438 108.773438 71.210938 108.988281 70.921875 L 108.988281 71.007812 L 110.53125 74.09375 C 111.675781 75.929688 113.703125 77.851562 115.417969 79.148438 C 116.308594 79.820312 117.019531 80.984375 118.164062 81.378906 L 118.164062 81.292969 L 118.078125 81.292969 C 117.855469 80.941406 117.503906 80.800781 117.21875 80.519531 C 116.550781 79.863281 115.800781 79.046875 115.246094 78.292969 C 113.683594 76.175781 112.304688 73.855469 111.046875 71.441406 C 110.445312 70.285156 109.921875 69.015625 109.417969 67.839844 C 109.222656 67.390625 109.226562 66.707031 108.820312 66.46875 C 108.265625 67.332031 107.445312 68.023438 107.019531 69.039062 C 106.332031 70.664062 106.242188 72.644531 105.988281 74.695312 C 105.839844 74.75 105.90625 74.710938 105.816406 74.78125 C 104.625 74.492188 104.203125 73.265625 103.761719 72.210938 C 102.636719 69.546875 102.429688 65.253906 103.417969 62.1875 C 103.671875 61.394531 104.828125 58.894531 104.359375 58.160156 C 104.136719 57.429688 103.398438 56.996094 102.988281 56.445312 C 102.480469 55.753906 101.96875 54.84375 101.617188 54.046875 C 100.695312 51.96875 100.269531 49.636719 99.300781 47.535156 C 98.839844 46.53125 98.058594 45.515625 97.414062 44.628906 C 96.703125 43.640625 95.910156 42.914062 95.359375 41.722656 C 95.160156 41.296875 94.894531 40.621094 95.1875 40.179688 C 95.25 39.902344 95.417969 39.730469 95.699219 39.667969 C 96.199219 39.285156 97.585938 39.792969 98.101562 40.011719 C 99.476562 40.582031 100.625 41.125 101.789062 41.894531 C 102.347656 42.257812 102.914062 42.980469 103.589844 43.179688 L 104.359375 43.179688 C 105.566406 43.457031 106.917969 43.269531 108.046875 43.609375 C 110.039062 44.214844 111.824219 45.15625 113.449219 46.179688 C 118.390625 49.296875 122.429688 53.738281 125.195312 59.039062 C 125.640625 59.890625 125.832031 60.707031 126.222656 61.609375 C 127.011719 63.425781 128.007812 65.308594 128.792969 67.089844 C 129.578125 68.871094 130.34375 70.664062 131.453125 72.144531 C 132.035156 72.921875 134.289062 73.34375 135.3125 73.773438 C 136.027344 74.078125 137.203125 74.394531 137.882812 74.800781 C 139.179688 75.585938 140.4375 76.515625 141.65625 77.375 C 142.265625 77.800781 144.136719 78.742188 144.230469 79.515625 Z M 144.226562 79.492188 " fill-opacity="1" fill-rule="nonzero"/><path fill="#00618a" d="M 105.90625 46.851562 C 105.277344 46.839844 104.832031 46.917969 104.363281 47.019531 L 104.363281 47.105469 L 104.449219 47.105469 C 104.746094 47.722656 105.277344 48.117188 105.648438 48.648438 L 106.503906 50.449219 L 106.589844 50.363281 C 107.121094 49.988281 107.367188 49.390625 107.363281 48.476562 C 107.148438 48.253906 107.117188 47.972656 106.933594 47.707031 C 106.6875 47.351562 106.207031 47.148438 105.902344 46.847656 Z M 105.90625 46.851562 " fill-opacity="1" fill-rule="evenodd"/><path fill="#e48e00" d="M 142.21875 104.175781 C 142.21875 106.332031 143.925781 107.789062 145.835938 107.789062 C 147.742188 107.789062 149.449219 106.332031 149.449219 104.175781 C 149.449219 102.019531 147.742188 100.5625 145.835938 100.5625 C 143.925781 100.5625 142.21875 102.019531 142.21875 104.175781 Z M 148.640625 104.175781 C 148.640625 105.8125 147.386719 107.035156 145.832031 107.035156 C 144.261719 107.035156 143.027344 105.8125 143.027344 104.175781 C 143.027344 102.539062 144.261719 101.316406 145.832031 101.316406 C 147.386719 101.316406 148.640625 102.539062 148.640625 104.175781 Z M 146.808594 106.238281 L 147.617188 106.238281 L 146.429688 104.425781 C 147.066406 104.359375 147.550781 104.050781 147.550781 103.300781 C 147.550781 102.460938 147.019531 102.117188 145.996094 102.117188 L 144.386719 102.117188 L 144.386719 106.238281 L 145.082031 106.238281 L 145.082031 104.457031 L 145.726562 104.457031 Z M 145.082031 103.875 L 145.082031 102.691406 L 145.882812 102.691406 C 146.296875 102.691406 146.796875 102.769531 146.796875 103.253906 C 146.796875 103.828125 146.34375 103.878906 145.824219 103.878906 L 145.082031 103.878906 Z M 145.082031 103.875 " fill-opacity="1" fill-rule="evenodd"/></svg>